<svg width="32" height="32" viewBox="0 0 32 32" fill="none" xmlns="http://www.w3.org/2000/svg">
<circle cx="16" cy="16" r="16" fill="#333333"/>
<path d="M12.4798 19.1524C12.693 19.1524 12.896 19.1334 13.0868 19.0907C13.2807 19.0486 13.4523 18.9812 13.5977 18.882C13.7424 18.7866 13.8628 18.6555 13.9499 18.4896C14.0374 18.3245 14.0794 18.1102 14.0794 17.8515C14.0794 17.3444 13.9363 16.9839 13.6527 16.7654C13.3678 16.5495 12.9887 16.4423 12.5226 16.4423H10.1666V19.1524H12.4798ZM12.3597 14.9631C12.7433 14.9631 13.0615 14.8722 13.3133 14.6874C13.5625 14.5052 13.6829 14.2049 13.6829 13.7921C13.6829 13.5634 13.6432 13.374 13.5625 13.2271C13.4788 13.0802 13.3678 12.9654 13.2285 12.8847C13.0899 12.801 12.9331 12.7435 12.7517 12.712C12.5729 12.6772 12.3862 12.6636 12.1942 12.6636H10.1666V14.9631H12.3597ZM12.64 10.987C13.1107 10.987 13.5356 11.0275 13.9238 11.112C14.3101 11.1938 14.6392 11.3305 14.9179 11.518C15.1921 11.7054 15.4068 11.9546 15.5606 12.2686C15.7102 12.578 15.7855 12.9654 15.7855 13.4232C15.7855 13.9186 15.6734 14.3325 15.4481 14.6635C15.2216 14.9938 14.8887 15.2645 14.4445 15.4751C15.0493 15.6493 15.4985 15.9557 15.7957 16.3916C16.0946 16.8305 16.2411 17.3554 16.2411 17.9712C16.2411 18.4703 16.1457 18.8998 15.9544 19.2614C15.7617 19.6273 15.4992 19.9238 15.1758 20.1526C14.8497 20.3832 14.476 20.5528 14.0563 20.6631C13.6417 20.7729 13.2111 20.8286 12.7695 20.8286H8V10.987H12.64Z" fill="white"/>
<path d="M21.5787 15.3755C21.3458 15.1184 20.9523 14.979 20.4717 14.979C20.1589 14.979 19.9002 15.0316 19.6927 15.1388C19.4897 15.2448 19.3238 15.3763 19.197 15.5315C19.0705 15.6891 18.9849 15.8557 18.9345 16.0337C18.8845 16.2072 18.8542 16.3643 18.8455 16.5033H22.0297C21.9831 16.0042 21.8123 15.6349 21.5787 15.3755ZM19.3295 19.1198C19.623 19.4061 20.0468 19.55 20.5959 19.55C20.9905 19.55 21.3314 19.4504 21.6177 19.2512C21.9013 19.0524 22.074 18.8399 22.1407 18.6195H23.8646C23.5873 19.4773 23.1673 20.0897 22.5936 20.4586C22.0267 20.8286 21.3359 21.013 20.5304 21.013C19.9692 21.013 19.4639 20.9221 19.0103 20.7433C18.5569 20.5619 18.1782 20.3082 17.8593 19.9768C17.5488 19.6443 17.3076 19.2512 17.1356 18.7896C16.9656 18.3302 16.88 17.8216 16.88 17.2706C16.88 16.7377 16.969 16.2401 17.1432 15.78C17.3204 15.3183 17.5666 14.9199 17.8897 14.5859C18.2134 14.25 18.5971 13.9849 19.044 13.791C19.4912 13.5982 19.9843 13.5013 20.5304 13.5013C21.1333 13.5013 21.6608 13.6172 22.1138 13.8535C22.5644 14.0868 22.9344 14.4026 23.2249 14.798C23.515 15.1926 23.7222 15.644 23.8513 16.1503C23.9793 16.6559 24.0244 17.1838 23.9876 17.7367H18.8455C18.8455 18.3003 19.0356 18.8335 19.3295 19.1198Z" fill="white"/>
<path d="M22.4342 11.6475H18.4449V12.6185H22.4342V11.6475Z" fill="white"/>
</svg>
