<svg width="32" height="32" viewBox="0 0 32 32" fill="none" xmlns="http://www.w3.org/2000/svg">
<path d="M11.3333 2.66667C9.12421 2.66667 7.33334 4.45754 7.33334 6.66667C7.33334 8.87581 9.12421 10.6667 11.3333 10.6667H20.6667C22.8759 10.6667 24.6667 8.87581 24.6667 6.66667C24.6667 4.45754 22.8759 2.66667 20.6667 2.66667H11.3333Z" fill="#333333"/>
<path d="M20.6667 12C18.4575 12 16.6667 13.7908 16.6667 16C16.6667 18.2092 18.4575 20 20.6667 20C22.8759 20 24.6667 18.2092 24.6667 16C24.6667 13.7908 22.8759 12 20.6667 12Z" fill="#333333"/>
<path d="M7.33334 16C7.33334 13.7908 9.12421 12 11.3333 12H15.3333V20H11.3333C9.12421 20 7.33334 18.2092 7.33334 16Z" fill="#333333"/>
<path d="M11.3333 21.3333C9.12421 21.3333 7.33334 23.1241 7.33334 25.3333C7.33334 27.5425 9.12421 29.3333 11.3333 29.3333C13.5425 29.3333 15.3333 27.5425 15.3333 25.3333V21.3333H11.3333Z" fill="#333333"/>
</svg>
