<svg width="33" height="32" viewBox="0 0 33 32" fill="none" xmlns="http://www.w3.org/2000/svg">
<path d="M7.29183 0.031311H8.73133V1.45356H10.0481V0.031311H11.4878V4.33812H10.0483V2.89587H8.73146V4.33812H7.29196V0.031311H7.29183ZM13.3807 1.45956H12.1135V0.031311H16.0881V1.45956H14.8203V4.33812H13.3808V1.45956H13.3807ZM16.7189 0.031311H18.2201L19.1433 1.54462L20.0658 0.031311H21.5672V4.33812H20.1336V2.2035L19.1433 3.73475H19.1186L18.1276 2.2035V4.33812H16.7189V0.031311ZM22.2838 0.031311H23.7236V2.91462H25.7481V4.33812H22.2838V0.031311ZM5.18671 6.30787L7.24583 29.4037L16.4861 31.9687L25.752 29.4L27.8133 6.30781L5.18671 6.30787ZM23.5181 11.7887L23.3891 13.2248L23.3325 13.8616H23.3232H16.5H16.4901H12.4929L12.7518 16.762H16.4901H16.5H22.3113H23.0746L23.0055 17.5227L22.3399 24.9802L22.2973 25.4585L16.5 27.0653V27.0658L16.487 27.0695L10.6846 25.4586L10.2876 21.0111H11.5983H13.1312L13.3329 23.2702L16.4875 24.1222L16.4901 24.1214V24.1211L19.6496 23.2686L19.9781 19.5948H16.5H16.4901H10.1611L9.46496 11.7887L9.39714 11.0289H16.4901H16.5H23.5859L23.5181 11.7887Z" fill="black"/>
</svg>
