<svg width="32" height="32" viewBox="0 0 32 32" fill="none" xmlns="http://www.w3.org/2000/svg">
<circle cx="16" cy="16" r="16" fill="#333333"/>
<path d="M8.2029 12.9742H11.6319V23.2931H8.2029V12.9742ZM9.94034 8C8.76674 8 8 8.77048 8 9.78175C8 10.7722 8.7443 11.5651 9.89547 11.5651H9.91733C11.1134 11.5651 11.8582 10.7722 11.8582 9.78175C11.8358 8.77048 11.1134 8 9.94034 8ZM20.051 12.7318C18.2309 12.7318 17.4154 13.7329 16.9605 14.435V12.9742H13.5305C13.5759 13.9422 13.5305 23.2931 13.5305 23.2931H16.9605V17.5303C16.9605 17.2216 16.983 16.9141 17.0732 16.693C17.3216 16.0769 17.8859 15.4388 18.8325 15.4388C20.0745 15.4388 20.5705 16.3855 20.5705 17.7721V23.2931H24V17.376C24 14.2065 22.3085 12.7318 20.051 12.7318Z" fill="white"/>
</svg>
