<svg width="41" height="40" viewBox="0 0 41 40" fill="none" xmlns="http://www.w3.org/2000/svg">
<path d="M21.05 28.73C21.13 28.87 21.05 29 20.95 29H18.04C17.9672 28.9987 17.8961 28.9775 17.8344 28.9387C17.7727 28.9 17.7228 28.8451 17.69 28.78C16.62 26.58 15.5 24.37 14.42 22C13.42 24.24 12.31 26.61 11.23 28.82C11.2039 28.8767 11.1613 28.9243 11.1078 28.9564C11.0543 28.9885 10.9923 29.0037 10.93 29H8.15C7.98 29 7.97 28.87 8.05 28.77L12.63 20.05L8.2 11.23C8.17778 11.2121 8.16205 11.1875 8.15522 11.1598C8.14839 11.1321 8.15085 11.103 8.16222 11.0768C8.17359 11.0507 8.19323 11.029 8.21812 11.0151C8.24302 11.0013 8.27179 10.9959 8.3 11H11.15C11.32 11 11.38 11 11.45 11.19C12.5 13.42 13.6 15.73 14.62 18C15.62 15.77 16.68 13.45 17.73 11.24C17.81 11.1 17.86 11.02 18.03 11.02H20.7C20.83 11.02 20.88 11.12 20.8 11.25L16.38 19.79L21.05 28.73ZM32.5 28.11C32.5 28.21 32.5 28.25 32.37 28.3C31.0352 28.9466 29.5732 29.2882 28.09 29.3C24.46 29.3 21.87 27.07 21.87 22.53C21.87 18.63 24.46 15.59 28.57 15.59C28.8596 15.5696 29.1504 15.5696 29.44 15.59V11.17C29.4424 11.1257 29.4611 11.0838 29.4925 11.0525C29.5238 11.0211 29.5657 11.0024 29.61 11H32.25C32.38 11 32.42 11.05 32.42 11.13V26.48C32.4104 27.0245 32.4372 27.5691 32.5 28.11ZM29.44 18.22C29.1216 18.0961 28.7814 18.0383 28.44 18.05C26.34 18.05 24.87 19.67 24.87 22.36C24.87 25.44 26.37 26.68 28.26 26.68C28.6521 26.6925 29.0428 26.6279 29.41 26.49L29.44 18.22Z" fill="#333333"/>
</svg>
